<svg width="306" height="126" viewBox="0 0 306 126" fill="none" xmlns="http://www.w3.org/2000/svg">
    <path d="M71.0036 120V108.364H73.4638V117.972H78.4524V120H71.0036ZM83.9794 120.17C83.0968 120.17 82.3336 119.983 81.6896 119.608C81.0495 119.229 80.5552 118.703 80.2067 118.028C79.8582 117.35 79.6839 116.564 79.6839 115.67C79.6839 114.769 79.8582 113.981 80.2067 113.307C80.5552 112.629 81.0495 112.102 81.6896 111.727C82.3336 111.348 83.0968 111.159 83.9794 111.159C84.862 111.159 85.6233 111.348 86.2635 111.727C86.9074 112.102 87.4036 112.629 87.7521 113.307C88.1006 113.981 88.2749 114.769 88.2749 115.67C88.2749 116.564 88.1006 117.35 87.7521 118.028C87.4036 118.703 86.9074 119.229 86.2635 119.608C85.6233 119.983 84.862 120.17 83.9794 120.17ZM83.9908 118.295C84.3923 118.295 84.7275 118.182 84.9964 117.955C85.2654 117.723 85.468 117.409 85.6044 117.011C85.7446 116.614 85.8146 116.161 85.8146 115.653C85.8146 115.146 85.7446 114.693 85.6044 114.295C85.468 113.898 85.2654 113.583 84.9964 113.352C84.7275 113.121 84.3923 113.006 83.9908 113.006C83.5855 113.006 83.2446 113.121 82.968 113.352C82.6953 113.583 82.4889 113.898 82.3487 114.295C82.2124 114.693 82.1442 115.146 82.1442 115.653C82.1442 116.161 82.2124 116.614 82.3487 117.011C82.4889 117.409 82.6953 117.723 82.968 117.955C83.2446 118.182 83.5855 118.295 83.9908 118.295ZM93.7805 123.455C92.9964 123.455 92.3241 123.347 91.7635 123.131C91.2067 122.919 90.7635 122.629 90.4339 122.261C90.1044 121.894 89.8904 121.481 89.7919 121.023L92.0305 120.722C92.0987 120.896 92.2067 121.059 92.3544 121.21C92.5021 121.362 92.6972 121.483 92.9396 121.574C93.1858 121.669 93.4851 121.716 93.8374 121.716C94.3639 121.716 94.7976 121.587 95.1385 121.33C95.4832 121.076 95.6555 120.65 95.6555 120.051V118.455H95.5533C95.4472 118.697 95.2881 118.926 95.076 119.142C94.8639 119.358 94.5911 119.534 94.2578 119.67C93.9245 119.807 93.5268 119.875 93.0646 119.875C92.4093 119.875 91.8127 119.723 91.2749 119.42C90.7408 119.114 90.3146 118.646 89.9964 118.017C89.6821 117.384 89.5249 116.585 89.5249 115.619C89.5249 114.631 89.6858 113.805 90.0078 113.142C90.3298 112.479 90.7578 111.983 91.2919 111.653C91.8298 111.324 92.4188 111.159 93.0589 111.159C93.5476 111.159 93.9567 111.242 94.2862 111.409C94.6158 111.572 94.8809 111.777 95.0817 112.023C95.2862 112.265 95.4434 112.504 95.5533 112.739H95.6442V111.273H98.0476V120.085C98.0476 120.828 97.8658 121.449 97.5021 121.949C97.1385 122.449 96.6347 122.824 95.9908 123.074C95.3506 123.328 94.6139 123.455 93.7805 123.455ZM93.8317 118.057C94.2218 118.057 94.5514 117.96 94.8203 117.767C95.093 117.57 95.3014 117.29 95.4453 116.926C95.593 116.559 95.6669 116.119 95.6669 115.608C95.6669 115.097 95.5949 114.653 95.451 114.278C95.3071 113.9 95.0987 113.606 94.826 113.398C94.5533 113.189 94.2218 113.085 93.8317 113.085C93.4339 113.085 93.0987 113.193 92.826 113.409C92.5533 113.621 92.3468 113.917 92.2067 114.295C92.0665 114.674 91.9964 115.112 91.9964 115.608C91.9964 116.112 92.0665 116.547 92.2067 116.915C92.3506 117.278 92.5571 117.561 92.826 117.761C93.0987 117.958 93.4339 118.057 93.8317 118.057ZM103.677 120V111.273H106.097V120H103.677ZM104.893 110.148C104.533 110.148 104.224 110.028 103.967 109.79C103.713 109.547 103.586 109.258 103.586 108.92C103.586 108.587 103.713 108.301 103.967 108.062C104.224 107.82 104.533 107.699 104.893 107.699C105.253 107.699 105.559 107.82 105.813 108.062C106.071 108.301 106.2 108.587 106.2 108.92C106.2 109.258 106.071 109.547 105.813 109.79C105.559 110.028 105.253 110.148 104.893 110.148ZM110.457 114.955V120H108.036V111.273H110.343V112.812H110.445C110.638 112.305 110.962 111.903 111.417 111.608C111.871 111.309 112.423 111.159 113.07 111.159C113.676 111.159 114.205 111.292 114.656 111.557C115.106 111.822 115.457 112.201 115.707 112.693C115.957 113.182 116.082 113.765 116.082 114.443V120H113.661V114.875C113.665 114.341 113.529 113.924 113.252 113.625C112.976 113.322 112.595 113.17 112.11 113.17C111.784 113.17 111.496 113.241 111.246 113.381C111 113.521 110.807 113.725 110.667 113.994C110.531 114.259 110.46 114.58 110.457 114.955ZM125.636 120.17C124.753 120.17 123.99 119.983 123.346 119.608C122.706 119.229 122.211 118.703 121.863 118.028C121.514 117.35 121.34 116.564 121.34 115.67C121.34 114.769 121.514 113.981 121.863 113.307C122.211 112.629 122.706 112.102 123.346 111.727C123.99 111.348 124.753 111.159 125.636 111.159C126.518 111.159 127.28 111.348 127.92 111.727C128.564 112.102 129.06 112.629 129.408 113.307C129.757 113.981 129.931 114.769 129.931 115.67C129.931 116.564 129.757 117.35 129.408 118.028C129.06 118.703 128.564 119.229 127.92 119.608C127.28 119.983 126.518 120.17 125.636 120.17ZM125.647 118.295C126.049 118.295 126.384 118.182 126.653 117.955C126.922 117.723 127.124 117.409 127.261 117.011C127.401 116.614 127.471 116.161 127.471 115.653C127.471 115.146 127.401 114.693 127.261 114.295C127.124 113.898 126.922 113.583 126.653 113.352C126.384 113.121 126.049 113.006 125.647 113.006C125.242 113.006 124.901 113.121 124.624 113.352C124.352 113.583 124.145 113.898 124.005 114.295C123.869 114.693 123.8 115.146 123.8 115.653C123.8 116.161 123.869 116.614 124.005 117.011C124.145 117.409 124.352 117.723 124.624 117.955C124.901 118.182 125.242 118.295 125.647 118.295ZM131.505 123.273V111.273H133.891V112.739H133.999C134.105 112.504 134.259 112.265 134.46 112.023C134.664 111.777 134.929 111.572 135.255 111.409C135.585 111.242 135.994 111.159 136.482 111.159C137.119 111.159 137.706 111.326 138.244 111.659C138.781 111.989 139.211 112.487 139.533 113.153C139.855 113.816 140.016 114.648 140.016 115.648C140.016 116.621 139.859 117.443 139.545 118.114C139.234 118.78 138.81 119.286 138.272 119.631C137.738 119.972 137.139 120.142 136.477 120.142C136.007 120.142 135.607 120.064 135.278 119.909C134.952 119.754 134.685 119.559 134.477 119.324C134.268 119.085 134.109 118.845 133.999 118.602H133.925V123.273H131.505ZM133.874 115.636C133.874 116.155 133.946 116.608 134.09 116.994C134.234 117.381 134.442 117.682 134.715 117.898C134.988 118.11 135.319 118.216 135.71 118.216C136.103 118.216 136.437 118.108 136.71 117.892C136.982 117.672 137.189 117.369 137.329 116.983C137.473 116.593 137.545 116.144 137.545 115.636C137.545 115.133 137.475 114.689 137.335 114.307C137.194 113.924 136.988 113.625 136.715 113.409C136.442 113.193 136.107 113.085 135.71 113.085C135.316 113.085 134.982 113.189 134.71 113.398C134.441 113.606 134.234 113.902 134.09 114.284C133.946 114.667 133.874 115.117 133.874 115.636ZM150.93 116.284V111.273H153.35V120H151.026V118.415H150.935C150.738 118.926 150.411 119.337 149.952 119.648C149.498 119.958 148.943 120.114 148.288 120.114C147.704 120.114 147.191 119.981 146.748 119.716C146.305 119.451 145.958 119.074 145.708 118.585C145.462 118.097 145.337 117.511 145.333 116.83V111.273H147.754V116.398C147.757 116.913 147.896 117.32 148.168 117.619C148.441 117.919 148.807 118.068 149.265 118.068C149.557 118.068 149.829 118.002 150.083 117.869C150.337 117.733 150.541 117.532 150.697 117.267C150.856 117.002 150.933 116.674 150.93 116.284ZM157.008 120L154.633 111.273H157.082L158.434 117.136H158.513L159.923 111.273H162.326L163.758 117.102H163.832L165.161 111.273H167.604L165.235 120H162.673L161.173 114.511H161.065L159.565 120H157.008ZM175.087 120.165C174.531 120.165 174.034 120.068 173.599 119.875C173.163 119.678 172.818 119.388 172.565 119.006C172.315 118.619 172.19 118.138 172.19 117.562C172.19 117.078 172.279 116.67 172.457 116.341C172.635 116.011 172.877 115.746 173.184 115.545C173.491 115.345 173.839 115.193 174.229 115.091C174.623 114.989 175.036 114.917 175.468 114.875C175.976 114.822 176.385 114.773 176.695 114.727C177.006 114.678 177.231 114.606 177.371 114.511C177.512 114.417 177.582 114.277 177.582 114.091V114.057C177.582 113.697 177.468 113.419 177.241 113.222C177.017 113.025 176.699 112.926 176.286 112.926C175.851 112.926 175.504 113.023 175.246 113.216C174.989 113.405 174.818 113.644 174.735 113.932L172.496 113.75C172.61 113.22 172.834 112.761 173.167 112.375C173.5 111.985 173.93 111.686 174.457 111.477C174.987 111.265 175.601 111.159 176.298 111.159C176.782 111.159 177.246 111.216 177.69 111.33C178.137 111.443 178.532 111.619 178.877 111.858C179.226 112.097 179.5 112.403 179.701 112.778C179.902 113.15 180.002 113.595 180.002 114.114V120H177.707V118.79H177.638C177.498 119.062 177.311 119.303 177.076 119.511C176.841 119.716 176.559 119.877 176.229 119.994C175.9 120.108 175.519 120.165 175.087 120.165ZM175.781 118.494C176.137 118.494 176.451 118.424 176.724 118.284C176.996 118.14 177.21 117.947 177.366 117.705C177.521 117.462 177.599 117.187 177.599 116.881V115.955C177.523 116.004 177.419 116.049 177.286 116.091C177.157 116.129 177.012 116.165 176.849 116.199C176.686 116.229 176.523 116.258 176.36 116.284C176.197 116.307 176.049 116.328 175.917 116.347C175.633 116.388 175.385 116.455 175.173 116.545C174.96 116.636 174.796 116.759 174.678 116.915C174.561 117.066 174.502 117.256 174.502 117.483C174.502 117.812 174.621 118.064 174.86 118.239C175.103 118.409 175.409 118.494 175.781 118.494ZM185.823 120.17C184.929 120.17 184.16 119.981 183.516 119.602C182.876 119.22 182.384 118.689 182.039 118.011C181.698 117.333 181.528 116.553 181.528 115.67C181.528 114.777 181.7 113.992 182.045 113.318C182.393 112.64 182.888 112.112 183.528 111.733C184.168 111.35 184.929 111.159 185.812 111.159C186.573 111.159 187.24 111.297 187.812 111.574C188.384 111.85 188.836 112.239 189.17 112.739C189.503 113.239 189.687 113.826 189.721 114.5H187.437C187.372 114.064 187.202 113.714 186.925 113.449C186.653 113.18 186.295 113.045 185.852 113.045C185.477 113.045 185.149 113.148 184.869 113.352C184.592 113.553 184.376 113.847 184.221 114.233C184.066 114.619 183.988 115.087 183.988 115.636C183.988 116.193 184.064 116.667 184.215 117.057C184.371 117.447 184.588 117.744 184.869 117.949C185.149 118.153 185.477 118.256 185.852 118.256C186.128 118.256 186.376 118.199 186.596 118.085C186.819 117.972 187.003 117.807 187.147 117.591C187.295 117.371 187.391 117.108 187.437 116.801H189.721C189.683 117.468 189.501 118.055 189.175 118.562C188.853 119.066 188.408 119.46 187.84 119.744C187.272 120.028 186.6 120.17 185.823 120.17ZM195.214 120.17C194.32 120.17 193.551 119.981 192.907 119.602C192.267 119.22 191.774 118.689 191.43 118.011C191.089 117.333 190.918 116.553 190.918 115.67C190.918 114.777 191.091 113.992 191.435 113.318C191.784 112.64 192.278 112.112 192.918 111.733C193.558 111.35 194.32 111.159 195.202 111.159C195.964 111.159 196.63 111.297 197.202 111.574C197.774 111.85 198.227 112.239 198.56 112.739C198.894 113.239 199.077 113.826 199.112 114.5H196.827C196.763 114.064 196.593 113.714 196.316 113.449C196.043 113.18 195.685 113.045 195.242 113.045C194.867 113.045 194.54 113.148 194.259 113.352C193.983 113.553 193.767 113.847 193.612 114.233C193.456 114.619 193.379 115.087 193.379 115.636C193.379 116.193 193.454 116.667 193.606 117.057C193.761 117.447 193.979 117.744 194.259 117.949C194.54 118.153 194.867 118.256 195.242 118.256C195.519 118.256 195.767 118.199 195.987 118.085C196.21 117.972 196.394 117.807 196.538 117.591C196.685 117.371 196.782 117.108 196.827 116.801H199.112C199.074 117.468 198.892 118.055 198.566 118.562C198.244 119.066 197.799 119.46 197.231 119.744C196.663 120.028 195.99 120.17 195.214 120.17ZM204.604 120.17C203.722 120.17 202.959 119.983 202.315 119.608C201.674 119.229 201.18 118.703 200.832 118.028C200.483 117.35 200.309 116.564 200.309 115.67C200.309 114.769 200.483 113.981 200.832 113.307C201.18 112.629 201.674 112.102 202.315 111.727C202.959 111.348 203.722 111.159 204.604 111.159C205.487 111.159 206.248 111.348 206.888 111.727C207.532 112.102 208.029 112.629 208.377 113.307C208.726 113.981 208.9 114.769 208.9 115.67C208.9 116.564 208.726 117.35 208.377 118.028C208.029 118.703 207.532 119.229 206.888 119.608C206.248 119.983 205.487 120.17 204.604 120.17ZM204.616 118.295C205.017 118.295 205.353 118.182 205.621 117.955C205.89 117.723 206.093 117.409 206.229 117.011C206.37 116.614 206.44 116.161 206.44 115.653C206.44 115.146 206.37 114.693 206.229 114.295C206.093 113.898 205.89 113.583 205.621 113.352C205.353 113.121 205.017 113.006 204.616 113.006C204.21 113.006 203.87 113.121 203.593 113.352C203.32 113.583 203.114 113.898 202.974 114.295C202.837 114.693 202.769 115.146 202.769 115.653C202.769 116.161 202.837 116.614 202.974 117.011C203.114 117.409 203.32 117.723 203.593 117.955C203.87 118.182 204.21 118.295 204.616 118.295ZM216.07 116.284V111.273H218.491V120H216.167V118.415H216.076C215.879 118.926 215.551 119.337 215.093 119.648C214.638 119.958 214.084 120.114 213.428 120.114C212.845 120.114 212.332 119.981 211.888 119.716C211.445 119.451 211.099 119.074 210.849 118.585C210.603 118.097 210.478 117.511 210.474 116.83V111.273H212.894V116.398C212.898 116.913 213.036 117.32 213.309 117.619C213.582 117.919 213.947 118.068 214.406 118.068C214.697 118.068 214.97 118.002 215.224 117.869C215.478 117.733 215.682 117.532 215.837 117.267C215.996 117.002 216.074 116.674 216.07 116.284ZM222.847 114.955V120H220.427V111.273H222.734V112.812H222.836C223.029 112.305 223.353 111.903 223.808 111.608C224.262 111.309 224.813 111.159 225.461 111.159C226.067 111.159 226.595 111.292 227.046 111.557C227.497 111.822 227.847 112.201 228.097 112.693C228.347 113.182 228.472 113.765 228.472 114.443V120H226.052V114.875C226.056 114.341 225.919 113.924 225.643 113.625C225.366 113.322 224.986 113.17 224.501 113.17C224.175 113.17 223.887 113.241 223.637 113.381C223.391 113.521 223.198 113.725 223.058 113.994C222.921 114.259 222.851 114.58 222.847 114.955ZM235.022 111.273V113.091H229.766V111.273H235.022ZM230.96 109.182H233.38V117.318C233.38 117.542 233.414 117.716 233.482 117.841C233.55 117.962 233.645 118.047 233.766 118.097C233.891 118.146 234.035 118.17 234.198 118.17C234.312 118.17 234.425 118.161 234.539 118.142C234.653 118.119 234.74 118.102 234.8 118.091L235.181 119.892C235.06 119.93 234.889 119.973 234.67 120.023C234.45 120.076 234.183 120.108 233.869 120.119C233.285 120.142 232.774 120.064 232.335 119.886C231.899 119.708 231.56 119.432 231.317 119.057C231.075 118.682 230.956 118.208 230.96 117.636V109.182Z" fill="#04173E" fill-opacity="0.8"/>
    <path d="M177.453 26.8681H174.095V20.1511C174.095 10.8816 166.572 3.35852 157.302 3.35852C148.033 3.35852 140.51 10.8816 140.51 20.1511V26.8681H137.151C133.457 26.8681 130.434 29.8908 130.434 33.5852V67.1704C130.434 70.8647 133.457 73.8874 137.151 73.8874H177.453C181.148 73.8874 184.17 70.8647 184.17 67.1704V33.5852C184.17 29.8908 181.148 26.8681 177.453 26.8681ZM157.302 57.0948C153.608 57.0948 150.585 54.0721 150.585 50.3778C150.585 46.6834 153.608 43.6607 157.302 43.6607C160.997 43.6607 164.019 46.6834 164.019 50.3778C164.019 54.0721 160.997 57.0948 157.302 57.0948ZM147.227 26.8681V20.1511C147.227 14.576 151.727 10.0756 157.302 10.0756C162.877 10.0756 167.378 14.576 167.378 20.1511V26.8681H147.227Z" fill="#04173E"/>
</svg>
