<svg width="24" height="24" viewBox="0 0 24 24" fill="none" xmlns="http://www.w3.org/2000/svg">
    <path d="M4.55769 14.25C3.94565 14.25 3.35868 14.0129 2.92591 13.591C2.49313 13.169 2.25 12.5967 2.25 12C2.25 11.4033 2.49313 10.831 2.92591 10.409C3.35868 9.98705 3.94565 9.75 4.55769 9.75C5.16973 9.75 5.7567 9.98705 6.18948 10.409C6.62225 10.831 6.86538 11.4033 6.86538 12C6.86538 12.5967 6.62225 13.169 6.18948 13.591C5.7567 14.0129 5.16973 14.25 4.55769 14.25ZM12.25 14.25C11.638 14.25 11.051 14.0129 10.6182 13.591C10.1854 13.169 9.94231 12.5967 9.94231 12C9.94231 11.4033 10.1854 10.831 10.6182 10.409C11.051 9.98705 11.638 9.75 12.25 9.75C12.862 9.75 13.449 9.98705 13.8818 10.409C14.3146 10.831 14.5577 11.4033 14.5577 12C14.5577 12.5967 14.3146 13.169 13.8818 13.591C13.449 14.0129 12.862 14.25 12.25 14.25ZM19.9423 14.25C19.3303 14.25 18.7433 14.0129 18.3105 13.591C17.8777 13.169 17.6346 12.5967 17.6346 12C17.6346 11.4033 17.8777 10.831 18.3105 10.409C18.7433 9.98705 19.3303 9.75 19.9423 9.75C20.5543 9.75 21.1413 9.98705 21.5741 10.409C22.0069 10.831 22.25 11.4033 22.25 12C22.25 12.5967 22.0069 13.169 21.5741 13.591C21.1413 14.0129 20.5543 14.25 19.9423 14.25Z" fill="#04173E" fill-opacity="0.65"/>
</svg>
